HIERARCHY
ROOT hip
{
  OFFSET 0 0 0
  CHANNELS 6 Xposition Yposition Zposition Zrotation Yrotation Xrotation
  JOINT abdomen
  {
    OFFSET 0 20.6881 -0.73152
    CHANNELS 3 Zrotation Xrotation Yrotation
    JOINT chest
    {
      OFFSET 0 11.7043 -0.48768
      CHANNELS 3 Zrotation Xrotation Yrotation
      JOINT neck
      {
        OFFSET 0 22.1894 -2.19456
        CHANNELS 3 Zrotation Xrotation Yrotation
        JOINT head
        {
          OFFSET -0.24384 7.07133 1.2192
          CHANNELS 3 Zrotation Xrotation Yrotation
          JOINT leftEye
          {
            OFFSET 4.14528 8.04674 8.04672
            CHANNELS 3 Zrotation Xrotation Yrotation
            End Site
            {
              OFFSET 1 0 0
            }
          }
          JOINT rightEye
          {
            OFFSET -3.6576 8.04674 8.04672
            CHANNELS 3 Zrotation Xrotation Yrotation
            End Site
            {
              OFFSET 1 0 0
            }
          }
        }
      }
      JOINT rCollar
      {
        OFFSET -2.68224 19.2634 -4.8768
        CHANNELS 3 Zrotation Xrotation Yrotation
        JOINT rShldr
        {
          OFFSET -8.77824 -1.95073 1.46304
          CHANNELS 3 Zrotation Xrotation Yrotation
          JOINT rForeArm
          {
            OFFSET -28.1742 -1.7115 0.48768
            CHANNELS 3 Zrotation Xrotation Yrotation
            JOINT rHand
            {
              OFFSET -22.5879 0.773209 7.07136
              CHANNELS 3 Zrotation Xrotation Yrotation
              JOINT rThumb1
              {
                OFFSET -1.2192 -0.487915 3.41376
                CHANNELS 3 Zrotation Xrotation Yrotation
                JOINT rThumb2
                {
                  OFFSET -3.37035 -0.52449 3.41376
                  CHANNELS 3 Zrotation Xrotation Yrotation
                  End Site
                  {
                    OFFSET -1.78271 -1.18214 1.43049
                  }
                }
              }
              JOINT rIndex1
              {
                OFFSET -7.75947 0.938293 5.60832
                CHANNELS 3 Zrotation Xrotation Yrotation
                JOINT rIndex2
                {
                  OFFSET -2.54057 -0.884171 1.56538
                  CHANNELS 3 Zrotation Xrotation Yrotation
                  End Site
                  {
                    OFFSET -1.62519 -0.234802 1.16502
                  }
                }
              }
              JOINT rMid1
              {
                OFFSET -8.24714 1.18213 3.41376
                CHANNELS 3 Zrotation Xrotation Yrotation
                JOINT rMid2
                {
                  OFFSET -3.10165 -0.590103 1.0647
                  CHANNELS 3 Zrotation Xrotation Yrotation
                  End Site
                  {
                    OFFSET -2.48547 -0.328903 0.83742
                  }
                }
              }
              JOINT rRing1
              {
                OFFSET -8.82822 0.546677 1.51678
                CHANNELS 3 Zrotation Xrotation Yrotation
                JOINT rRing2
                {
                  OFFSET -2.60934 -0.819778 -0.0198488
                  CHANNELS 3 Zrotation Xrotation Yrotation
                  End Site
                  {
                    OFFSET -2.33842 -0.294052 0.168128
                  }
                }
              }
              JOINT rPinky1
              {
                OFFSET -8.27202 -0.0477905 -0.4584
                CHANNELS 3 Zrotation Xrotation Yrotation
                JOINT rPinky2
                {
                  OFFSET -1.82734 -0.647385 -0.700984
                  CHANNELS 3 Zrotation Xrotation Yrotation
                  End Site
                  {
                    OFFSET -1.69225 -0.51767 -0.607171
                  }
                }
              }
            }
          }
        }
      }
      JOINT lCollar
      {
        OFFSET 2.68224 19.2634 -4.8768
        CHANNELS 3 Zrotation Xrotation Yrotation
        JOINT lShldr
        {
          OFFSET 8.77824 -1.95073 1.46304
          CHANNELS 3 Zrotation Xrotation Yrotation
          JOINT lForeArm
          {
            OFFSET 28.1742 -1.7115 0.48768
            CHANNELS 3 Zrotation Xrotation Yrotation
            JOINT lHand
            {
              OFFSET 22.5879 0.773209 7.07136
              CHANNELS 3 Zrotation Xrotation Yrotation
              JOINT lThumb1
              {
                OFFSET 1.2192 -0.487915 3.41376
                CHANNELS 3 Zrotation Xrotation Yrotation
                JOINT lThumb2
                {
                  OFFSET 3.37035 -0.52449 3.41376
                  CHANNELS 3 Zrotation Xrotation Yrotation
                  End Site
                  {
                    OFFSET 1.78271 -1.18214 1.43049
                  }
                }
              }
              JOINT lIndex1
              {
                OFFSET 7.75947 0.938293 5.60832
                CHANNELS 3 Zrotation Xrotation Yrotation
                JOINT lIndex2
                {
                  OFFSET 2.54057 -0.884171 1.56538
                  CHANNELS 3 Zrotation Xrotation Yrotation
                  End Site
                  {
                    OFFSET 1.62519 -0.234802 1.16502
                  }
                }
              }
              JOINT lMid1
              {
                OFFSET 8.24714 1.18213 3.41376
                CHANNELS 3 Zrotation Xrotation Yrotation
                JOINT lMid2
                {
                  OFFSET 3.10165 -0.590103 1.0647
                  CHANNELS 3 Zrotation Xrotation Yrotation
                  End Site
                  {
                    OFFSET 2.48547 -0.328903 0.83742
                  }
                }
              }
              JOINT lRing1
              {
                OFFSET 8.82822 0.546677 1.51678
                CHANNELS 3 Zrotation Xrotation Yrotation
                JOINT lRing2
                {
                  OFFSET 2.60934 -0.819778 -0.0198488
                  CHANNELS 3 Zrotation Xrotation Yrotation
                  End Site
                  {
                    OFFSET 2.33842 -0.294052 0.168128
                  }
                }
              }
              JOINT lPinky1
              {
                OFFSET 8.27202 -0.0477905 -0.4584
                CHANNELS 3 Zrotation Xrotation Yrotation
                JOINT lPinky2
                {
                  OFFSET 1.82734 -0.647385 -0.700984
                  CHANNELS 3 Zrotation Xrotation Yrotation
                  End Site
                  {
                    OFFSET 1.69225 -0.51767 -0.607171
                  }
                }
              }
            }
          }
        }
      }
    }
  }
  JOINT rButtock
  {
    OFFSET -8.77824 4.35084 1.2192
    CHANNELS 3 Zrotation Xrotation Yrotation
    JOINT rThigh
    {
      OFFSET 0 -1.70687 -2.19456
      CHANNELS 3 Zrotation Xrotation Yrotation
      JOINT rShin
      {
        OFFSET 0 -36.8199 0.73152
        CHANNELS 3 Zrotation Xrotation Yrotation
        JOINT rFoot
        {
          OFFSET 0.73152 -45.1104 -5.12064
          CHANNELS 3 Zrotation Xrotation Yrotation
          End Site
          {
            OFFSET -1.1221 -3.69964 12.103
          }
        }
      }
    }
  }
  JOINT lButtock
  {
    OFFSET 8.77824 4.35084 1.2192
    CHANNELS 3 Zrotation Xrotation Yrotation
    JOINT lThigh
    {
      OFFSET 0 -1.70687 -2.19456
      CHANNELS 3 Zrotation Xrotation Yrotation
      JOINT lShin
      {
        OFFSET 0 -36.8199 0.73152
        CHANNELS 3 Zrotation Xrotation Yrotation
        JOINT lFoot
        {
          OFFSET -0.73152 -45.1104 -5.12064
          CHANNELS 3 Zrotation Xrotation Yrotation
          End Site
          {
            OFFSET 1.1221 -3.69964 12.103
          }
        }
      }
    }
  }
}
MOTION
Frames:	7
Frame Time:	0.00833333
-215.543 83.185 13.3884 0.0 0.0 0.0 -3.13119 0.00208552 -0.0845026 -0.863225 0.0181966 -0.149331 -6.94436e-14 -1.59028e-15 -6.4605e-16 -2.08587e-13 3.18055e-15 -1.89156e-15 -0.0 0.0 0.0 -0.0 0.0 0.0 -3.49389e-14 -4.27076e-18 -1.98785e-16 -7.25804e-13 -3.16813e-16 -8.15017e-15 -1.25092e-11 3.76478e-12 -1.27222e-14 -1.43666e-10 -3.80273e-12 -1.52985e-12 -3.38807e-10 -8.01169e-14 -3.3046e-12 -5.85109e-10 -1.36764e-13 -5.69717e-12 -3.38801e-10 -7.71284e-14 -3.31414e-12 7.73091 5.47488 0.417314 -3.38807e-10 -8.04084e-14 -3.30142e-12 2.90554 0.965183 0.102902 -3.38802e-10 -8.04084e-14 -3.30142e-12 10.2786 0.731801 0.0259123 -3.38812e-10 -7.7526e-14 -3.28869e-12 2.22167 -0.733487 -0.20892 -3.49362e-14 -7.37677e-18 -4.96962e-16 -7.29338e-13 -4.34841e-16 -9.54166e-15 -1.25816e-11 -3.75246e-12 -1.59028e-14 -1.4358e-10 3.72157e-12 -1.49804e-12 -3.38776e-10 -6.5951e-14 -3.28233e-12 -5.8506e-10 -1.145e-13 -5.65582e-12 -3.3878e-10 -6.40087e-14 -3.26961e-12 -7.73091 5.47488 -0.417314 -3.38776e-10 -6.52014e-14 -3.28551e-12 -2.90554 0.965183 -0.102902 -3.38785e-10 -6.57977e-14 -3.28472e-12 -10.2786 0.731801 -0.0259123 -3.38777e-10 -6.55989e-14 -3.28869e-12 -2.22167 -0.733487 0.20892 -2.03217e-16 0.0 -3.88251e-19 -1.91894 -1.93503 0.0146271 -0.00849954 -2.07867 -0.0697515 -0.458501 4.00011 0.132435 2.03217e-16 0.0 3.88251e-19 -2.83838 -9.32624 0.322368 -0.00902395 11.3079 -0.235071 0.52751 -1.99508 -0.0183765
-212.677 81.1348 4.8884 163.131 68.1282 174.536 -5.71736 5.05236 -1.06244 0.604071 0.310972 -0.514442 -2.60079 -0.222296 -0.100372 5.06157 -13.3834 3.52587 -0.0 0.0 0.0 -0.0 0.0 0.0 2.36773e-14 -5.41927e-13 -2.56503e-13 14.6297 22.4252 2.34771 -28.4391 -25.7554 13.101 0.351477 -13.2494 -1.68874 -5.47677e-10 1.9655e-09 4.0772e-10 -9.57664e-10 3.36217e-09 6.8717e-10 -5.47672e-10 1.9655e-09 4.07706e-10 7.73091 5.47488 0.417314 -5.47678e-10 1.9655e-09 4.07721e-10 2.90554 0.965183 0.102902 -5.47673e-10 1.9655e-09 4.07721e-10 10.2786 0.731801 0.0259123 -5.47682e-10 1.9655e-09 4.07732e-10 2.22167 -0.733487 -0.20892 2.36415e-14 -5.41918e-13 -2.5676e-13 -11.5775 22.9306 -7.84641 26.2708 -23.9561 -14.0155 -0.631373 -17.797 2.08733 -8.11471e-10 -1.18124e-09 7.93096e-10 -1.43489e-09 -2.02261e-09 1.32696e-09 -8.11475e-10 -1.18124e-09 7.93106e-10 -7.73091 5.47488 -0.417314 -8.11472e-10 -1.18124e-09 7.93095e-10 -2.90554 0.965183 -0.102902 -8.11478e-10 -1.18124e-09 7.93094e-10 -10.2786 0.731801 -0.0259123 -8.11471e-10 -1.18124e-09 7.9309e-10 -2.22167 -0.733487 0.20892 -2.03217e-16 0.0 -3.88251e-19 -5.63511 -6.68244 -3.93584 0.0201348 9.32822 0.117456 -1.53419 -2.96632 -5.99566 2.03217e-16 0.0 3.88251e-19 -1.70799 -13.8108 0.979344 0.00300682 16.9888 -0.260838 0.361876 -3.35486 -1.34996
-212.203 81.1256 4.6416 163.438 67.3886 173.895 -8.23809 10.3986 -2.19531 2.15284 0.619983 -0.920003 -5.31369 -0.487523 -0.164312 12.3167 -27.358 7.99459 -0.0 0.0 0.0 -0.0 0.0 0.0 9.24823e-14 -1.13423e-12 -5.45356e-13 27.4242 46.1005 6.25055 -40.6672 -47.6384 37.6018 -0.225186 -27.3275 -3.81955 -7.88777e-10 4.08984e-09 8.54566e-10 -1.38679e-09 6.99376e-09 1.43984e-09 -7.88774e-10 4.08984e-09 8.54546e-10 7.73091 5.47488 0.417314 -7.88778e-10 4.08984e-09 8.54563e-10 2.90554 0.965183 0.102902 -7.88774e-10 4.08984e-09 8.54563e-10 10.2786 0.731801 0.0259123 -7.88783e-10 4.08984e-09 8.54572e-10 2.22167 -0.733487 -0.20892 9.24027e-14 -1.13421e-12 -5.45568e-13 -14.5611 45.7312 -21.4093 37.5422 -43.8011 -37.9248 0.42496 -36.5875 5.09905 -1.33203e-09 -2.50391e-09 1.68595e-09 -2.37155e-09 -4.28813e-09 2.82183e-09 -1.33203e-09 -2.50392e-09 1.68596e-09 -7.73091 5.47488 -0.417314 -1.33203e-09 -2.50391e-09 1.68595e-09 -2.90554 0.965183 -0.102902 -1.33203e-09 -2.50391e-09 1.68595e-09 -10.2786 0.731801 -0.0259123 -1.33203e-09 -2.50391e-09 1.68595e-09 -2.22167 -0.733487 0.20892 -2.03217e-16 0.0 -3.88251e-19 -10.3028 -11.6531 -8.26481 -0.0360867 21.4048 0.334152 -4.2847 -10.0743 -12.6368 2.03217e-16 0.0 3.88251e-19 -0.393776 -18.5718 1.70518 0.0219073 22.9948 -0.293089 0.117845 -4.76913 -2.77106
-211.732 81.0766 4.41303 163.712 66.6911 173.26 -10.3567 15.1341 -3.11403 3.54986 0.896349 -1.2448 -7.8047 -0.666881 -0.301134 21.3247 -39.4485 13.3753 -0.0 0.0 0.0 -0.0 0.0 0.0 1.4091e-13 -1.62577e-12 -7.69112e-13 31.3929 66.4578 16.4908 -31.1276 -53.2165 75.0094 -1.87559 -39.5885 -6.40444 -9.65416e-10 5.89667e-09 1.22977e-09 -1.70277e-09 1.00868e-08 2.0729e-09 -9.65414e-10 5.89666e-09 1.22975e-09 7.73091 5.47488 0.417314 -9.65418e-10 5.89667e-09 1.22976e-09 2.90554 0.965183 0.102902 -9.65414e-10 5.89667e-09 1.22976e-09 10.2786 0.731801 0.0259123 -9.65422e-10 5.89667e-09 1.22977e-09 2.22167 -0.733487 -0.20892 1.40797e-13 -1.62574e-12 -7.69285e-13 0.497477 60.431 -48.4391 31.2383 -48.8553 -70.5988 4.1601 -53.0086 9.94092 -1.75686e-09 -3.54358e-09 2.38585e-09 -3.13455e-09 -6.0676e-09 3.99218e-09 -1.75687e-09 -3.54359e-09 2.38586e-09 -7.73091 5.47488 -0.417314 -1.75686e-09 -3.54358e-09 2.38586e-09 -2.90554 0.965183 -0.102902 -1.75686e-09 -3.54358e-09 2.38585e-09 -10.2786 0.731801 -0.0259123 -1.75686e-09 -3.54358e-09 2.38585e-09 -2.22167 -0.733487 0.20892 -2.03217e-16 0.0 -3.88251e-19 -15.0834 -15.8748 -12.2296 -0.176603 32.1407 0.575289 -8.21466 -16.074 -18.9964 2.03217e-16 0.0 3.88251e-19 0.886752 -22.7674 2.4043 0.0456658 28.3506 -0.326513 -0.159803 -6.0623 -4.02876
-211.229 81.1151 4.19634 163.943 66.092 172.284 -11.9179 18.3662 -3.38987 4.55866 1.09129 -1.36753 -9.73944 -0.631562 -0.620138 29.9467 -47.5102 18.3947 -0.0 0.0 0.0 -0.0 0.0 0.0 1.38394e-13 -1.86541e-12 -8.30125e-13 11.4837 77.7924 45.9627 -25.739 -46.7607 97.1848 -3.8797 -47.4631 -8.81097 -9.80902e-10 6.90971e-09 1.42587e-09 -1.7359e-09 1.18334e-08 2.40694e-09 -9.80901e-10 6.9097e-09 1.42585e-09 7.73091 5.47488 0.417314 -9.80903e-10 6.90971e-09 1.42586e-09 2.90554 0.965183 0.102902 -9.809e-10 6.90971e-09 1.42586e-09 10.2786 0.731801 0.0259123 -9.80907e-10 6.90971e-09 1.42587e-09 2.22167 -0.733487 -0.20892 1.38274e-13 -1.86538e-12 -8.30274e-13 22.6282 62.2545 -77.1791 27.2132 -43.4171 -90.2974 10.3733 -63.7986 16.5946 -1.94238e-09 -3.87574e-09 2.60336e-09 -3.46342e-09 -6.63193e-09 4.35123e-09 -1.94238e-09 -3.87574e-09 2.60337e-09 -7.73091 5.47488 -0.417314 -1.94238e-09 -3.87573e-09 2.60337e-09 -2.90554 0.965183 -0.102902 -1.94238e-09 -3.87574e-09 2.60336e-09 -10.2786 0.731801 -0.0259123 -1.94238e-09 -3.87573e-09 2.60336e-09 -2.22167 -0.733487 0.20892 -2.03217e-16 0.0 -3.88251e-19 -18.648 -18.5235 -14.9054 -0.342301 39.5262 0.797555 -11.9428 -20.0945 -23.894 2.03217e-16 0.0 3.88251e-19 1.83981 -25.5604 2.94363 0.0670225 32.0809 -0.351602 -0.389281 -7.06348 -4.86521
-210.791 81.208 3.9922 164.038 65.7508 171.68 -12.8857 19.4033 -2.73503 5.09015 1.20947 -1.21854 -10.8573 -0.263408 -1.19844 34.5048 -50.7441 20.2645 -0.0 0.0 0.0 -0.0 0.0 0.0 5.19191e-14 -1.71665e-12 -6.25278e-13 -8.5539 78.4376 69.7482 -25.6135 -43.109 103.922 -4.63706 -49.4209 -9.60484 -7.3082e-10 6.79979e-09 1.36255e-09 -1.30412e-09 1.1682e-08 2.30946e-09 -7.30819e-10 6.79978e-09 1.36253e-09 7.73091 5.47488 0.417314 -7.30822e-10 6.79979e-09 1.36255e-09 2.90554 0.965183 0.102902 -7.30818e-10 6.79979e-09 1.36255e-09 10.2786 0.731801 0.0259123 -7.30825e-10 6.79979e-09 1.36255e-09 2.22167 -0.733487 -0.20892 5.18357e-14 -1.71662e-12 -6.25427e-13 28.1729 59.8698 -84.4242 27.0885 -40.2224 -96.4904 14.15 -67.3885 20.445 -1.76578e-09 -3.08083e-09 2.06161e-09 -3.13374e-09 -5.25936e-09 3.43234e-09 -1.76578e-09 -3.08083e-09 2.06161e-09 -7.73091 5.47488 -0.417314 -1.76578e-09 -3.08082e-09 2.06161e-09 -2.90554 0.965183 -0.102902 -1.76578e-09 -3.08083e-09 2.06161e-09 -10.2786 0.731801 -0.0259123 -1.76577e-09 -3.08082e-09 2.0616e-09 -2.22167 -0.733487 0.20892 -2.03217e-16 0.0 -3.88251e-19 -19.7718 -19.2253 -15.5187 -0.422469 42.196 0.914892 -14.0028 -21.9893 -26.2965 2.03217e-16 0.0 3.88251e-19 2.24082 -26.5099 3.20561 0.0775788 33.5497 -0.357631 -0.50854 -7.69389 -5.19094
-210.429 81.2588 3.83788 163.997 65.7475 171.558 -13.4262 18.8699 -1.40989 5.27636 1.27105 -0.874891 -11.3807 0.340675 -1.96183 35.0288 -50.7403 18.8951 -0.0 0.0 0.0 -0.0 0.0 0.0 -9.39236e-14 -1.29216e-12 -2.32342e-13 -2.73698 75.6622 63.8637 -25.1075 -44.2565 105.144 -4.04118 -47.1944 -8.84753 -2.92949e-10 5.8883e-09 1.11435e-09 -5.43543e-10 1.01754e-08 1.90436e-09 -2.92948e-10 5.8883e-09 1.11433e-09 7.73091 5.47488 0.417314 -2.92952e-10 5.88829e-09 1.11434e-09 2.90554 0.965183 0.102902 -2.92947e-10 5.8883e-09 1.11434e-09 10.2786 0.731801 0.0259123 -2.92954e-10 5.8883e-09 1.11435e-09 2.22167 -0.733487 -0.20892 -9.39404e-14 -1.29214e-12 -2.32507e-13 22.9472 57.9609 -78.1362 26.7953 -41.2466 -97.3742 12.8979 -66.1395 19.121 -1.33181e-09 -1.48738e-09 9.81509e-10 -2.33609e-09 -2.51451e-09 1.60741e-09 -1.33181e-09 -1.48738e-09 9.81519e-10 -7.73091 5.47488 -0.417314 -1.33181e-09 -1.48737e-09 9.81516e-10 -2.90554 0.965183 -0.102902 -1.33181e-09 -1.48738e-09 9.81512e-10 -10.2786 0.731801 -0.0259123 -1.3318e-09 -1.48737e-09 9.81502e-10 -2.22167 -0.733487 0.20892 -2.03217e-16 0.0 -3.88251e-19 -19.0373 -18.5752 -14.6106 -0.401403 41.4992 0.926061 -14.4901 -22.5683 -26.7409 2.03217e-16 0.0 3.88251e-19 2.21579 -26.1395 3.25307 0.0784179 33.4026 -0.348312 -0.532836 -8.05995 -5.14534
